<mxfile host="Electron" modified="2022-12-26T13:44:26.883Z" agent="5.0 (Windows NT 10.0; Win64; x64) AppleWebKit/537.36 (KHTML, like Gecko) draw.io/18.0.1 Chrome/100.0.4896.143 Electron/18.2.0 Safari/537.36" etag="1rYs_M0-iCn14dDbKpYy" compressed="false" version="18.0.1" type="device">
  <diagram id="3w6g5_Ta-V8lRmugiTsT" name="第 1 页">
    <mxGraphModel dx="622" dy="939" grid="0" gridSize="10" guides="1" tooltips="1" connect="1" arrows="1" fold="1" page="0" pageScale="1" pageWidth="827" pageHeight="1169" math="0" shadow="0">
      <root>
        <mxCell id="0" />
        <mxCell id="1" parent="0" />
        <mxCell id="GYIKJYMq1MzzK1BG4W0E-1" value="&lt;span style=&quot;font-size: 19px;&quot;&gt;修改/删除/清空购物车&lt;/span&gt;" style="text;html=1;strokeColor=none;fillColor=none;align=center;verticalAlign=middle;whiteSpace=wrap;rounded=0;fontSize=18;fontStyle=1" parent="1" vertex="1">
          <mxGeometry x="1033" y="-45" width="297" height="44" as="geometry" />
        </mxCell>
        <mxCell id="GYIKJYMq1MzzK1BG4W0E-2" value="" style="rounded=0;whiteSpace=wrap;html=1;fontSize=18;fillColor=#f5f5f5;strokeColor=#666666;fontStyle=1;fontColor=#333333;" parent="1" vertex="1">
          <mxGeometry x="557" y="119" width="253" height="315" as="geometry" />
        </mxCell>
        <mxCell id="GYIKJYMq1MzzK1BG4W0E-3" value="浏览器" style="text;html=1;strokeColor=none;fillColor=none;align=center;verticalAlign=middle;whiteSpace=wrap;rounded=0;fontSize=17;fontStyle=1" parent="1" vertex="1">
          <mxGeometry x="580" y="137" width="60" height="30" as="geometry" />
        </mxCell>
        <mxCell id="GYIKJYMq1MzzK1BG4W0E-6" value="" style="rounded=0;whiteSpace=wrap;html=1;fontSize=17;fillColor=#fff2cc;strokeColor=#d6b656;fontStyle=1" parent="1" vertex="1">
          <mxGeometry x="865" y="13" width="1044" height="814" as="geometry" />
        </mxCell>
        <mxCell id="GYIKJYMq1MzzK1BG4W0E-7" value="服务端" style="text;html=1;strokeColor=none;fillColor=none;align=center;verticalAlign=middle;whiteSpace=wrap;rounded=0;fontSize=17;fontStyle=1" parent="1" vertex="1">
          <mxGeometry x="872" y="21" width="60" height="30" as="geometry" />
        </mxCell>
        <mxCell id="GYIKJYMq1MzzK1BG4W0E-9" value="" style="text;html=1;strokeColor=#d79b00;fillColor=#ffe6cc;align=left;verticalAlign=top;whiteSpace=wrap;rounded=0;fontSize=17;fontStyle=1" parent="1" vertex="1">
          <mxGeometry x="895" y="70" width="242" height="437" as="geometry" />
        </mxCell>
        <mxCell id="8VZ2lhoY9Nfm3T2TA_DG-3" value="web层" style="text;html=1;strokeColor=none;fillColor=none;align=left;verticalAlign=top;whiteSpace=wrap;rounded=0;fontSize=17;fontStyle=1" parent="1" vertex="1">
          <mxGeometry x="906" y="73" width="60" height="30" as="geometry" />
        </mxCell>
        <mxCell id="dEFfX4xB_Dbg5YB7Ye-p-43" style="edgeStyle=orthogonalEdgeStyle;curved=1;rounded=0;orthogonalLoop=1;jettySize=auto;html=1;exitX=0;exitY=0.75;exitDx=0;exitDy=0;entryX=0.836;entryY=1.001;entryDx=0;entryDy=0;entryPerimeter=0;fontColor=#000000;strokeWidth=2;" parent="1" source="Zatc0vboHGfkbghF3RjW-1" target="GYIKJYMq1MzzK1BG4W0E-9" edge="1">
          <mxGeometry relative="1" as="geometry" />
        </mxCell>
        <mxCell id="Zatc0vboHGfkbghF3RjW-1" value="entity包-提供Javabean" style="rounded=0;whiteSpace=wrap;html=1;labelBorderColor=none;fontSize=17;strokeColor=#b85450;align=left;fontStyle=1;verticalAlign=top;fillColor=#f8cecc;" parent="1" vertex="1">
          <mxGeometry x="1346.5" y="451" width="440" height="352" as="geometry" />
        </mxCell>
        <mxCell id="bZlDuSdulc7KowGW-_eb-3" style="edgeStyle=orthogonalEdgeStyle;rounded=0;orthogonalLoop=1;jettySize=auto;html=1;exitX=1;exitY=0.25;exitDx=0;exitDy=0;entryX=0;entryY=0.25;entryDx=0;entryDy=0;strokeWidth=2;" parent="1" source="Zatc0vboHGfkbghF3RjW-6" target="Zatc0vboHGfkbghF3RjW-7" edge="1">
          <mxGeometry relative="1" as="geometry" />
        </mxCell>
        <mxCell id="jyQDhWdHv0TXVoNtGqj6-1" value="&lt;font color=&quot;#000000&quot; style=&quot;font-size: 17px;&quot;&gt;&lt;b&gt;http请求&lt;/b&gt;&lt;/font&gt;" style="edgeLabel;html=1;align=center;verticalAlign=middle;resizable=0;points=[];fontColor=#FF0000;" parent="bZlDuSdulc7KowGW-_eb-3" vertex="1" connectable="0">
          <mxGeometry x="0.1656" y="1" relative="1" as="geometry">
            <mxPoint x="-1" y="11" as="offset" />
          </mxGeometry>
        </mxCell>
        <mxCell id="Zatc0vboHGfkbghF3RjW-6" value="/views/cart/cart.jsp&lt;br&gt;&lt;br&gt;购物车的家居列表&lt;br&gt;名字 单价 金额 数量[修改]&lt;br&gt;&lt;br&gt;[删除]&lt;br&gt;[清空购物车]" style="rounded=0;whiteSpace=wrap;html=1;fontSize=17;fontStyle=1;align=left;verticalAlign=top;strokeColor=#999999;" parent="1" vertex="1">
          <mxGeometry x="576" y="186" width="210" height="216" as="geometry" />
        </mxCell>
        <mxCell id="bZlDuSdulc7KowGW-_eb-2" style="edgeStyle=orthogonalEdgeStyle;rounded=0;orthogonalLoop=1;jettySize=auto;html=1;exitX=0;exitY=0.75;exitDx=0;exitDy=0;entryX=1;entryY=0.75;entryDx=0;entryDy=0;strokeWidth=2;" parent="1" source="Zatc0vboHGfkbghF3RjW-7" target="Zatc0vboHGfkbghF3RjW-6" edge="1">
          <mxGeometry relative="1" as="geometry" />
        </mxCell>
        <mxCell id="jyQDhWdHv0TXVoNtGqj6-2" value="返回刷新购物车" style="edgeLabel;html=1;align=center;verticalAlign=middle;resizable=0;points=[];fontSize=17;fontColor=#000000;fontStyle=1" parent="bZlDuSdulc7KowGW-_eb-2" vertex="1" connectable="0">
          <mxGeometry x="-0.1559" y="-1" relative="1" as="geometry">
            <mxPoint x="-2" y="-15" as="offset" />
          </mxGeometry>
        </mxCell>
        <mxCell id="dEFfX4xB_Dbg5YB7Ye-p-42" style="edgeStyle=orthogonalEdgeStyle;curved=1;rounded=0;orthogonalLoop=1;jettySize=auto;html=1;exitX=1;exitY=0.5;exitDx=0;exitDy=0;entryX=0;entryY=0.25;entryDx=0;entryDy=0;fontColor=#000000;strokeWidth=2;" parent="1" source="Zatc0vboHGfkbghF3RjW-7" target="Zatc0vboHGfkbghF3RjW-1" edge="1">
          <mxGeometry relative="1" as="geometry">
            <Array as="points">
              <mxPoint x="1199" y="297" />
              <mxPoint x="1199" y="539" />
            </Array>
          </mxGeometry>
        </mxCell>
        <mxCell id="Zatc0vboHGfkbghF3RjW-7" value="CartServlet&lt;br&gt;处理修改购物车商品项的数量updateCount()&lt;br&gt;1.获取家居id和新的数量&lt;br&gt;2.调用Cart.updateCount()&lt;br&gt;3.重定向返回cart.jsp&lt;br&gt;&lt;br&gt;处理删除购物车商品项&lt;br&gt;delItem&lt;br&gt;1.获取家居id&lt;br&gt;2.调用Cart.deleteItem()&lt;br&gt;3.重定向返回cart.jsp&lt;br&gt;&lt;br&gt;处理清空购物车-clear()&lt;br&gt;1.调用Cart.clean()&lt;br&gt;2.重定向返回cart.jsp" style="rounded=0;whiteSpace=wrap;html=1;fontSize=17;align=left;verticalAlign=top;fontStyle=1;strokeColor=#999999;" parent="1" vertex="1">
          <mxGeometry x="914.25" y="119" width="208.75" height="355" as="geometry" />
        </mxCell>
        <mxCell id="sAvUuzzA0ZJwsFMWrOZG-2" value="Cart-数据模型&lt;br&gt;1.表示购物车，存放多个cartItem对象&lt;br&gt;2.包含的属性Map&amp;lt;Integer,CartItem&amp;gt; items&lt;br&gt;3.包含方法&lt;br&gt;1）addItem 添加&lt;br&gt;2）deleteItem 删除&lt;br&gt;3）clear 清空&lt;br&gt;4）updateCount修改数量&lt;br&gt;5）getTotalCount&lt;br&gt;6）getTotalPrice&lt;br&gt;7）getItems" style="rounded=0;whiteSpace=wrap;html=1;labelBorderColor=none;fontSize=17;strokeColor=#999999;fontStyle=1;align=left;verticalAlign=top;" parent="1" vertex="1">
          <mxGeometry x="1360" y="486" width="202.5" height="303" as="geometry" />
        </mxCell>
        <mxCell id="w-7WuPagmr1MUGhSwBlZ-1" value="CartItem&lt;br&gt;1.表示购物车的一项&lt;br&gt;2.包含的属性&lt;br&gt;Integer id;&lt;br&gt;String name;&lt;br&gt;Integer count；&lt;br&gt;BigDecimal price；&lt;br&gt;BigDecimal totalPrice；" style="rounded=0;whiteSpace=wrap;html=1;labelBorderColor=none;fontSize=17;strokeColor=#999999;fontStyle=1;align=left;verticalAlign=top;" parent="1" vertex="1">
          <mxGeometry x="1573.5" y="533" width="198.5" height="183" as="geometry" />
        </mxCell>
        <mxCell id="dEFfX4xB_Dbg5YB7Ye-p-20" value="Service层" style="text;html=1;strokeColor=#82b366;fillColor=#d5e8d4;align=left;verticalAlign=top;whiteSpace=wrap;rounded=0;fontSize=17;fontStyle=1" parent="1" vertex="1">
          <mxGeometry x="1207" y="83" width="180" height="322" as="geometry" />
        </mxCell>
        <mxCell id="dEFfX4xB_Dbg5YB7Ye-p-21" style="edgeStyle=orthogonalEdgeStyle;rounded=0;orthogonalLoop=1;jettySize=auto;html=1;exitX=0.004;exitY=0.775;exitDx=0;exitDy=0;fontSize=17;strokeWidth=2;exitPerimeter=0;" parent="1" source="dEFfX4xB_Dbg5YB7Ye-p-22" edge="1">
          <mxGeometry relative="1" as="geometry">
            <mxPoint x="1386" y="385" as="targetPoint" />
          </mxGeometry>
        </mxCell>
        <mxCell id="dEFfX4xB_Dbg5YB7Ye-p-22" value="dao层" style="text;html=1;strokeColor=#6c8ebf;fillColor=#dae8fc;align=left;verticalAlign=top;whiteSpace=wrap;rounded=0;fontSize=17;fontStyle=1" parent="1" vertex="1">
          <mxGeometry x="1435" y="80" width="276" height="324" as="geometry" />
        </mxCell>
        <mxCell id="dEFfX4xB_Dbg5YB7Ye-p-23" style="edgeStyle=orthogonalEdgeStyle;rounded=0;orthogonalLoop=1;jettySize=auto;html=1;exitX=0.5;exitY=1;exitDx=0;exitDy=0;exitPerimeter=0;entryX=1.015;entryY=0.826;entryDx=0;entryDy=0;entryPerimeter=0;fontSize=17;strokeWidth=2;" parent="1" source="dEFfX4xB_Dbg5YB7Ye-p-24" target="dEFfX4xB_Dbg5YB7Ye-p-22" edge="1">
          <mxGeometry relative="1" as="geometry" />
        </mxCell>
        <mxCell id="dEFfX4xB_Dbg5YB7Ye-p-24" value="" style="shape=cylinder3;whiteSpace=wrap;html=1;boundedLbl=1;backgroundOutline=1;size=15.49022001378674;fontSize=17;fontStyle=1" parent="1" vertex="1">
          <mxGeometry x="1756" y="144.5" width="137" height="173" as="geometry" />
        </mxCell>
        <mxCell id="dEFfX4xB_Dbg5YB7Ye-p-25" value="FurnService.java&lt;br&gt;[接口]声明" style="rounded=0;whiteSpace=wrap;html=1;labelBorderColor=none;fontSize=17;strokeColor=#999999;fontStyle=1;align=center;verticalAlign=middle;" parent="1" vertex="1">
          <mxGeometry x="1217.5" y="155" width="159" height="70" as="geometry" />
        </mxCell>
        <mxCell id="dEFfX4xB_Dbg5YB7Ye-p-26" style="edgeStyle=orthogonalEdgeStyle;rounded=0;orthogonalLoop=1;jettySize=auto;html=1;exitX=0.5;exitY=0;exitDx=0;exitDy=0;fontSize=17;dashed=1;strokeWidth=2;" parent="1" source="dEFfX4xB_Dbg5YB7Ye-p-28" target="dEFfX4xB_Dbg5YB7Ye-p-25" edge="1">
          <mxGeometry relative="1" as="geometry" />
        </mxCell>
        <mxCell id="dEFfX4xB_Dbg5YB7Ye-p-27" style="edgeStyle=orthogonalEdgeStyle;rounded=0;orthogonalLoop=1;jettySize=auto;html=1;exitX=1;exitY=0.25;exitDx=0;exitDy=0;entryX=0;entryY=0.5;entryDx=0;entryDy=0;fontStyle=0;strokeWidth=2;" parent="1" source="dEFfX4xB_Dbg5YB7Ye-p-28" target="dEFfX4xB_Dbg5YB7Ye-p-33" edge="1">
          <mxGeometry relative="1" as="geometry" />
        </mxCell>
        <mxCell id="dEFfX4xB_Dbg5YB7Ye-p-28" value="FurnServiceImpl&lt;br&gt;.java实现类" style="rounded=0;whiteSpace=wrap;html=1;labelBorderColor=none;fontSize=17;strokeColor=#999999;align=center;fontStyle=1;verticalAlign=middle;" parent="1" vertex="1">
          <mxGeometry x="1220.06" y="275" width="153.88" height="88" as="geometry" />
        </mxCell>
        <mxCell id="dEFfX4xB_Dbg5YB7Ye-p-29" value="FurnDAO接口" style="rounded=0;whiteSpace=wrap;html=1;labelBorderColor=none;fontSize=17;strokeColor=#999999;fontStyle=1;align=center;verticalAlign=middle;" parent="1" vertex="1">
          <mxGeometry x="1479.8700000000001" y="122.25" width="186.25" height="58" as="geometry" />
        </mxCell>
        <mxCell id="dEFfX4xB_Dbg5YB7Ye-p-30" style="edgeStyle=orthogonalEdgeStyle;rounded=0;orthogonalLoop=1;jettySize=auto;html=1;exitX=0.5;exitY=0;exitDx=0;exitDy=0;entryX=0.5;entryY=1;entryDx=0;entryDy=0;dashed=1;fontSize=17;strokeWidth=2;" parent="1" source="dEFfX4xB_Dbg5YB7Ye-p-33" target="dEFfX4xB_Dbg5YB7Ye-p-29" edge="1">
          <mxGeometry relative="1" as="geometry" />
        </mxCell>
        <mxCell id="dEFfX4xB_Dbg5YB7Ye-p-31" style="edgeStyle=orthogonalEdgeStyle;rounded=0;orthogonalLoop=1;jettySize=auto;html=1;exitX=0.5;exitY=1;exitDx=0;exitDy=0;entryX=0.5;entryY=0;entryDx=0;entryDy=0;fontSize=17;strokeWidth=2;" parent="1" source="dEFfX4xB_Dbg5YB7Ye-p-33" target="dEFfX4xB_Dbg5YB7Ye-p-34" edge="1">
          <mxGeometry relative="1" as="geometry" />
        </mxCell>
        <mxCell id="dEFfX4xB_Dbg5YB7Ye-p-32" style="edgeStyle=orthogonalEdgeStyle;rounded=0;orthogonalLoop=1;jettySize=auto;html=1;exitX=1;exitY=0.5;exitDx=0;exitDy=0;entryX=0.01;entryY=0.184;entryDx=0;entryDy=0;entryPerimeter=0;fontSize=17;strokeWidth=2;" parent="1" source="dEFfX4xB_Dbg5YB7Ye-p-33" target="dEFfX4xB_Dbg5YB7Ye-p-36" edge="1">
          <mxGeometry relative="1" as="geometry" />
        </mxCell>
        <mxCell id="dEFfX4xB_Dbg5YB7Ye-p-33" value="FurnDAOImpl实现类" style="rounded=0;whiteSpace=wrap;html=1;labelBorderColor=none;fontSize=17;strokeColor=#999999;fontStyle=1;align=center;verticalAlign=middle;" parent="1" vertex="1">
          <mxGeometry x="1471" y="232" width="203" height="58.5" as="geometry" />
        </mxCell>
        <mxCell id="dEFfX4xB_Dbg5YB7Ye-p-34" value="BasicDAO[基础DAO]" style="rounded=0;whiteSpace=wrap;html=1;labelBorderColor=none;fontSize=17;strokeColor=#999999;align=center;fontStyle=1;verticalAlign=middle;" parent="1" vertex="1">
          <mxGeometry x="1485.5" y="332" width="174" height="45.5" as="geometry" />
        </mxCell>
        <mxCell id="dEFfX4xB_Dbg5YB7Ye-p-35" value="mysql" style="text;html=1;strokeColor=none;fillColor=none;align=center;verticalAlign=middle;whiteSpace=wrap;rounded=0;labelBorderColor=none;fontSize=17;fontStyle=1" parent="1" vertex="1">
          <mxGeometry x="1786.5" y="144.5" width="60" height="30" as="geometry" />
        </mxCell>
        <mxCell id="dEFfX4xB_Dbg5YB7Ye-p-36" value="furn表[家居表]&lt;br&gt;字段&lt;br&gt;id&lt;br&gt;name&lt;br&gt;marker..." style="rounded=0;whiteSpace=wrap;html=1;labelBorderColor=none;fontSize=17;strokeColor=#9673a6;fillColor=#e1d5e7;fontStyle=1;align=left;" parent="1" vertex="1">
          <mxGeometry x="1765.31" y="189.25" width="114.69" height="111.5" as="geometry" />
        </mxCell>
        <mxCell id="dEFfX4xB_Dbg5YB7Ye-p-37" value="" style="endArrow=none;html=1;rounded=0;fontSize=17;exitX=1;exitY=0;exitDx=0;exitDy=0;entryX=0;entryY=1;entryDx=0;entryDy=0;strokeWidth=3;strokeColor=#FF0000;" parent="1" source="dEFfX4xB_Dbg5YB7Ye-p-22" target="dEFfX4xB_Dbg5YB7Ye-p-22" edge="1">
          <mxGeometry width="50" height="50" relative="1" as="geometry">
            <mxPoint x="1232" y="257" as="sourcePoint" />
            <mxPoint x="1282" y="207" as="targetPoint" />
          </mxGeometry>
        </mxCell>
        <mxCell id="dEFfX4xB_Dbg5YB7Ye-p-38" value="" style="endArrow=none;html=1;rounded=0;fontSize=17;exitX=1;exitY=0;exitDx=0;exitDy=0;entryX=0;entryY=1;entryDx=0;entryDy=0;fillColor=#f8cecc;strokeColor=#FF0000;strokeWidth=3;" parent="1" target="dEFfX4xB_Dbg5YB7Ye-p-20" edge="1">
          <mxGeometry width="50" height="50" relative="1" as="geometry">
            <mxPoint x="1491.5600000000004" y="80.00000000000045" as="sourcePoint" />
            <mxPoint x="1215.56" y="404" as="targetPoint" />
          </mxGeometry>
        </mxCell>
      </root>
    </mxGraphModel>
  </diagram>
</mxfile>
